<svg width="3144" height="729" viewBox="0 0 3144 729" fill="none" xmlns="http://www.w3.org/2000/svg">
<rect width="3144" height="729" rx="141" fill="#1E1E1E"/>
<path d="M761.463 211.719C758.023 208.671 754.43 205.8 750.7 203.116C739.009 194.57 726.093 187.843 712.389 183.165L711.934 183.01C684.64 173.741 655.213 172.772 627.369 180.223C599.525 187.675 574.513 203.214 555.493 224.878C536.473 246.542 524.298 273.358 520.506 301.939C516.714 330.52 521.474 359.585 534.187 385.461L525.764 395.025L408.086 528.737C401.188 536.56 396.627 546.164 394.923 556.455C393.218 566.746 394.44 577.309 398.448 586.938C401.695 594.758 406.701 601.724 413.075 607.295C418.568 612.124 424.958 615.824 431.881 618.181C438.803 620.539 446.123 621.509 453.42 621.037C460.718 620.564 467.85 618.657 474.411 615.426C480.972 612.194 486.831 607.701 491.655 602.204C491.933 601.899 492.243 601.566 492.493 601.238C499.182 606.74 507.726 609.464 516.363 608.85C525.001 608.236 533.074 604.33 538.917 597.937C544.761 591.544 547.929 583.152 547.769 574.491C547.608 565.831 544.132 557.562 538.057 551.389L537.064 550.651C536.786 550.447 536.531 550.196 536.299 550.014C536.067 549.832 535.207 548.971 534.697 548.438C531.033 544.502 529.028 539.304 529.098 533.927C529.169 528.549 531.309 523.406 535.075 519.567C538.84 515.728 543.941 513.49 549.314 513.317C554.688 513.145 559.921 515.051 563.925 518.641L564.635 519.301L564.79 519.146C571.564 524.69 580.224 527.389 588.947 526.677C597.67 525.964 605.777 521.896 611.563 515.327C617.349 508.759 620.363 500.202 619.971 491.456C619.579 482.71 615.812 474.457 609.461 468.432L617.806 458.941C649.728 469.934 684.476 469.499 716.113 457.712C747.751 445.925 774.316 423.517 791.272 394.314C808.228 365.111 814.522 330.926 809.08 297.597C803.639 264.268 786.798 233.862 761.435 211.573L761.463 211.719ZM729.689 330.557C725.384 335.509 720.211 339.631 714.424 342.721C702.389 349.195 688.369 350.93 675.12 347.585C661.871 344.24 650.352 336.058 642.829 324.648C635.307 313.237 632.324 299.424 634.468 285.925C636.612 272.426 643.728 260.218 654.415 251.701C665.103 243.185 678.59 238.977 692.222 239.904C705.855 240.832 718.648 246.828 728.084 256.713C737.521 266.599 742.918 279.659 743.215 293.324C743.512 306.989 738.687 320.271 729.689 330.557Z" fill="white"/>
<path d="M424.161 394.856C432.515 392.099 439.462 386.19 443.525 378.386C447.588 370.582 448.445 361.5 445.914 353.073L457.87 349.079C473.946 367.656 494.446 381.878 517.474 390.43C495.071 366.424 481.424 335.558 478.742 302.828C476.06 270.098 484.5 237.421 502.695 210.086C520.891 182.752 547.777 162.361 579 152.214C610.223 142.068 643.957 142.759 674.738 154.178C655.37 133.479 630.39 118.876 602.854 112.156C575.319 105.436 546.422 106.89 519.7 116.341C492.978 125.791 469.59 142.828 452.396 165.367C435.202 187.906 424.949 214.97 422.891 243.247L410.808 247.24L241.634 303.456C227.754 308.211 216.311 318.255 209.794 331.404C203.276 344.553 202.212 359.744 206.832 373.674C211.451 387.603 221.382 399.146 234.463 405.791C247.545 412.437 262.72 413.647 276.69 409.161L277.91 408.755C280.922 416.869 286.93 423.518 294.695 427.334C302.461 431.15 311.393 431.843 319.654 429.27C327.915 426.697 334.875 421.054 339.102 413.503C343.329 405.951 344.501 397.066 342.376 388.677C342.199 388.321 342.044 387.911 341.894 387.533C341.754 387.241 341.643 386.936 341.561 386.623C341.307 385.885 341.129 385.147 340.951 384.432C339.879 379.222 340.832 373.799 343.615 369.267C346.398 364.735 350.803 361.433 355.933 360.034C361.064 358.635 366.534 359.244 371.232 361.737C375.929 364.23 379.501 368.419 381.22 373.452C381.277 373.776 381.37 374.092 381.498 374.395H381.703C384.726 382.662 390.852 389.425 398.78 393.246C406.709 397.067 415.814 397.644 424.161 394.856Z" fill="#E31337"/>
<path d="M1021.33 368.272L1165.14 204.746C1166.19 203.821 1166.94 202.602 1167.28 201.248C1167.63 199.893 1167.56 198.466 1167.09 197.151C1166.61 195.836 1165.75 194.694 1164.62 193.873C1163.49 193.053 1162.14 192.591 1160.74 192.549H1115.02C1110.06 192.748 1105.21 193.979 1100.75 196.162C1096.3 198.345 1092.35 201.433 1089.16 205.229L983.243 337.521H973.505L992.075 208.158C992.361 206.206 992.221 204.215 991.663 202.323C991.106 200.43 990.144 198.681 988.845 197.197C987.546 195.712 985.941 194.528 984.139 193.724C982.338 192.921 980.384 192.518 978.412 192.544H942.276C937.964 192.608 933.819 194.22 930.597 197.086C927.374 199.952 925.288 203.882 924.721 208.158L880.772 518.667C880.39 520.591 880.446 522.578 880.936 524.478C881.426 526.378 882.338 528.144 883.603 529.643C884.869 531.143 886.456 532.338 888.247 533.14C890.037 533.942 891.986 534.33 893.947 534.275H930.533C934.812 534.131 938.905 532.489 942.097 529.636C945.29 526.782 947.38 522.898 948.003 518.661L964.089 404.413H972.867L1043.16 522.078C1045.64 525.875 1049.05 528.983 1053.05 531.115C1057.06 533.247 1061.54 534.334 1066.07 534.275H1116.83C1118.22 534.307 1119.6 533.977 1120.83 533.316C1122.06 532.654 1123.09 531.685 1123.83 530.503C1124.57 529.322 1124.99 527.968 1125.05 526.574C1125.11 525.181 1124.81 523.796 1124.17 522.555L1021.33 368.272Z" fill="white"/>
<path d="M1390.25 192.549H1217.49C1213.18 192.618 1209.04 194.233 1205.82 197.098C1202.6 199.964 1200.52 203.891 1199.96 208.163L1155.99 518.667C1155.6 520.593 1155.66 522.58 1156.15 524.481C1156.64 526.382 1157.56 528.147 1158.82 529.647C1160.09 531.147 1161.68 532.342 1163.47 533.145C1165.26 533.947 1167.21 534.335 1169.17 534.281H1345.97C1350.21 534.153 1354.27 532.507 1357.4 529.642C1360.53 526.777 1362.54 522.883 1363.05 518.667L1366.46 494.24C1366.82 492.348 1366.74 490.399 1366.24 488.542C1365.73 486.685 1364.8 484.968 1363.53 483.522C1362.26 482.077 1360.67 480.941 1358.9 480.201C1357.12 479.461 1355.2 479.137 1353.28 479.254H1229.65L1241.37 395.756H1338.48C1342.77 395.631 1346.88 393.998 1350.09 391.143C1353.3 388.288 1355.41 384.393 1356.03 380.142L1359.45 356.166C1359.83 354.239 1359.78 352.25 1359.29 350.347C1358.8 348.444 1357.89 346.676 1356.62 345.175C1355.36 343.673 1353.76 342.478 1351.97 341.678C1350.18 340.877 1348.23 340.492 1346.26 340.552H1249.21L1261.91 248.295H1382.45C1386.63 248.127 1390.63 246.559 1393.82 243.841C1397 241.123 1399.18 237.414 1400 233.308L1403.42 208.19C1403.8 206.264 1403.75 204.277 1403.26 202.375C1402.77 200.474 1401.85 198.707 1400.59 197.207C1399.32 195.707 1397.73 194.511 1395.94 193.71C1394.15 192.908 1392.2 192.52 1390.24 192.576L1390.25 192.549Z" fill="white"/>
<path d="M1681.13 192.554H1641.58C1636.87 192.754 1632.28 194.159 1628.27 196.636C1624.26 199.112 1620.95 202.577 1618.65 206.699L1537.76 357.035L1498.12 206.699C1497.01 202.538 1494.53 198.876 1491.07 196.308C1487.62 193.739 1483.4 192.417 1479.09 192.554H1437.6C1435.91 192.512 1434.24 192.865 1432.71 193.584C1431.18 194.303 1429.85 195.369 1428.8 196.696C1427.76 198.023 1427.05 199.576 1426.71 201.23C1426.37 202.883 1426.43 204.593 1426.87 206.221L1494.24 417.098L1479.59 518.672C1479.26 520.636 1479.38 522.648 1479.93 524.561C1480.48 526.474 1481.45 528.241 1482.76 529.734C1484.08 531.226 1485.71 532.407 1487.54 533.189C1489.37 533.972 1491.35 534.338 1493.34 534.259H1530.44C1534.68 534.126 1538.73 532.479 1541.86 529.615C1545 526.751 1547 522.859 1547.51 518.645L1562.16 416.111L1687.54 206.307C1688.61 205.1 1689.3 203.607 1689.54 202.012C1689.77 200.416 1689.53 198.787 1688.85 197.326C1688.17 195.865 1687.07 194.635 1685.7 193.787C1684.33 192.939 1682.74 192.511 1681.13 192.554Z" fill="white"/>
<path d="M2186.71 518.672L2230.64 208.163C2230.98 206.243 2230.89 204.272 2230.38 202.39C2229.87 200.508 2228.96 198.76 2227.7 197.271C2226.44 195.781 2224.87 194.586 2223.1 193.77C2221.33 192.954 2219.41 192.537 2217.46 192.549H2179.89C2175.64 192.674 2171.58 194.318 2168.44 197.184C2165.31 200.049 2163.3 203.945 2162.8 208.163L2144.25 340.938H2040.8L2059.34 208.163C2059.78 206.271 2059.77 204.305 2059.33 202.415C2058.89 200.524 2058.03 198.76 2056.8 197.254C2055.58 195.749 2054.03 194.542 2052.27 193.727C2050.5 192.912 2048.58 192.509 2046.64 192.549H2009.55C2005.23 192.613 2001.09 194.225 1997.87 197.091C1994.64 199.957 1992.56 203.887 1991.99 208.163L1948.06 518.672C1947.68 520.597 1947.74 522.584 1948.23 524.484C1948.72 526.385 1949.63 528.151 1950.9 529.65C1952.16 531.15 1953.75 532.346 1955.54 533.148C1957.33 533.95 1959.28 534.339 1961.24 534.286H1998.82C2003.03 534.076 2007.04 532.402 2010.16 529.552C2013.27 526.701 2015.29 522.854 2015.87 518.672L2032.95 396.63H2135.9L2118.87 518.672C2118.54 520.592 2118.62 522.563 2119.13 524.446C2119.64 526.328 2120.56 528.076 2121.81 529.566C2123.07 531.055 2124.64 532.25 2126.41 533.066C2128.18 533.882 2130.11 534.298 2132.06 534.286H2169.16C2173.47 534.222 2177.61 532.61 2180.84 529.743C2184.06 526.877 2186.14 522.948 2186.71 518.672Z" fill="white"/>
<path d="M2500.51 519.595L2439.03 207.176C2437.94 202.958 2435.48 199.225 2432.02 196.574C2428.57 193.922 2424.32 192.505 2419.97 192.549H2387.26C2382.5 192.783 2377.88 194.255 2373.86 196.82C2369.84 199.385 2366.56 202.955 2364.34 207.176L2215.42 519.595C2214.5 521.057 2214 522.74 2213.96 524.466C2213.92 526.192 2214.35 527.897 2215.2 529.399C2216.05 530.901 2217.29 532.145 2218.79 532.999C2220.29 533.852 2222 534.284 2223.72 534.248H2263.72C2268.35 534.063 2272.84 532.553 2276.65 529.897C2280.46 527.242 2283.42 523.551 2285.2 519.262L2314.47 451.888H2419.16L2429.89 519.745C2430.56 523.896 2432.72 527.663 2435.95 530.354C2439.18 533.046 2443.27 534.482 2447.47 534.399H2488.46C2490.29 534.412 2492.1 534.014 2493.76 533.234C2495.42 532.453 2496.88 531.31 2498.04 529.889C2499.19 528.467 2500.01 526.804 2500.44 525.023C2500.87 523.241 2500.89 521.386 2500.5 519.595H2500.51ZM2337.05 399.022L2391.21 272.094L2410.72 399.022H2337.05Z" fill="white"/>
<path d="M2628.9 192.554H2591.77C2587.46 192.611 2583.3 194.22 2580.07 197.086C2576.85 199.953 2574.75 203.887 2574.19 208.168L2530.29 518.672C2529.9 520.596 2529.96 522.583 2530.44 524.484C2530.93 526.385 2531.84 528.152 2533.1 529.652C2534.37 531.153 2535.95 532.349 2537.74 533.151C2539.54 533.954 2541.48 534.342 2543.45 534.286H2580.98C2585.2 534.077 2589.22 532.405 2592.34 529.555C2595.46 526.706 2597.5 522.858 2598.09 518.672L2641.54 208.163C2641.98 206.276 2641.98 204.313 2641.54 202.425C2641.11 200.537 2640.25 198.773 2639.03 197.267C2637.81 195.762 2636.26 194.554 2634.51 193.737C2632.75 192.919 2630.83 192.513 2628.9 192.549V192.554Z" fill="white"/>
<path d="M2927.02 192.549H2890.44C2886.17 192.594 2882.06 194.211 2878.91 197.092C2875.76 199.973 2873.78 203.914 2873.36 208.163L2846.39 411.246L2770.86 206.216C2769.16 202.178 2766.31 198.729 2762.67 196.299C2759.02 193.869 2754.74 192.565 2750.37 192.549H2710.85C2706.53 192.607 2702.38 194.215 2699.15 197.081C2695.92 199.946 2693.83 203.878 2693.26 208.158L2649.36 518.667C2648.98 520.591 2649.03 522.577 2649.51 524.478C2650 526.379 2650.91 528.146 2652.18 529.647C2653.44 531.148 2655.03 532.344 2656.82 533.146C2658.61 533.948 2660.56 534.336 2662.52 534.281H2699.13C2703.33 534.14 2707.33 532.479 2710.39 529.606C2713.46 526.734 2715.37 522.846 2715.78 518.667L2743.13 316.57L2817.32 520.614C2819.01 524.654 2821.86 528.104 2825.51 530.535C2829.15 532.966 2833.43 534.268 2837.81 534.281H2878.79C2883.07 534.089 2887.15 532.433 2890.34 529.59C2893.54 526.746 2895.66 522.889 2896.35 518.667L2939.73 208.158C2940.12 206.27 2940.09 204.319 2939.63 202.446C2939.17 200.573 2938.3 198.826 2937.09 197.331C2935.87 195.836 2934.34 194.63 2932.6 193.802C2930.86 192.974 2928.95 192.544 2927.03 192.544L2927.02 192.549Z" fill="white"/>
<path d="M1930.78 228.186C1907.14 209.627 1879.03 197.633 1849.28 193.416C1819.53 189.198 1789.2 192.905 1761.34 204.164C1733.48 215.422 1709.09 233.833 1690.62 257.537C1672.15 281.242 1660.25 309.402 1656.14 339.174C1652.03 368.946 1655.84 399.276 1667.19 427.104C1678.54 454.931 1697.03 479.271 1720.79 497.665C1744.55 516.06 1772.75 527.858 1802.52 531.869C1832.3 535.881 1862.61 531.963 1890.39 520.512C1892.44 519.661 1894.18 518.208 1895.39 516.344C1899.11 510.724 1901.09 504.13 1901.09 497.388L1907.08 450.187C1907.35 448.119 1906.99 446.017 1906.04 444.158C1905.09 442.299 1903.61 440.77 1901.78 439.772C1899.95 438.773 1897.86 438.352 1895.78 438.563C1893.71 438.775 1891.74 439.609 1890.15 440.956C1874.41 454.031 1855.09 462.06 1834.72 463.998C1814.35 465.936 1793.87 461.693 1775.94 451.821C1758.01 441.949 1743.47 426.907 1734.22 408.652C1724.96 390.397 1721.41 369.777 1724.03 349.477C1726.66 329.176 1735.33 310.137 1748.93 294.838C1762.52 279.539 1780.41 268.689 1800.25 263.703C1820.1 258.716 1840.99 259.824 1860.2 266.881C1879.41 273.938 1896.05 286.617 1907.95 303.268C1909.14 304.992 1910.83 306.313 1912.79 307.059C1914.75 307.805 1916.89 307.941 1918.93 307.448C1920.97 306.956 1922.81 305.858 1924.22 304.299C1925.62 302.74 1926.52 300.794 1926.8 298.714L1934.71 237.964C1934.95 236.135 1934.71 234.275 1934.02 232.563C1933.34 230.851 1932.22 229.345 1930.78 228.191L1930.78 228.186Z" fill="white"/>
<path d="M1826.83 428.459C1862.41 428.459 1891.26 399.608 1891.26 364.018C1891.26 328.429 1862.41 299.578 1826.83 299.578C1791.26 299.578 1762.41 328.429 1762.41 364.018C1762.41 399.608 1791.26 428.459 1826.83 428.459Z" fill="white"/>
</svg>
